<svg xmlns="http://www.w3.org/2000/svg" width="20" height="20" fill="none" viewBox="0 0 20 20">
    <path fill="#000" d="M16.323 18.468H3.383v1.47h12.94v-1.47zM12.181 6.63H7.647c-.406 0-.735.33-.735.735 0 .406.329.736.735.736h4.534c.407 0 .736-.33.736-.736 0-.406-.33-.735-.736-.735zM15.613 10.061H7.647c-.406 0-.735.33-.735.736 0 .406.329.735.735.735h7.966c.406 0 .735-.33.735-.735 0-.407-.33-.736-.735-.736z"/>
    <path fill="#000" d="M19.567.15c-.264-.118-.573-.071-.79.12l-2.059 1.822L14.657.249c-.28-.25-.701-.25-.98 0l-2.06 1.84L9.56.25c-.28-.25-.701-.25-.98 0L6.516 2.092 4.457.27C4.242.08 3.934.032 3.67.15c-.264.12-.434.382-.434.671V13.91h-2.5c-.406 0-.735.33-.735.736v1.789c0 1.932 1.572 3.505 3.505 3.505v-1.47c-1.122 0-2.034-.914-2.034-2.035V15.38h11.52v1.054c0 1.932 1.572 3.505 3.504 3.505 1.933 0 3.505-1.573 3.505-3.505V.821c0-.29-.17-.551-.433-.67zm-1.038 16.284c0 1.121-.912 2.034-2.034 2.034-1.121 0-2.034-.913-2.034-2.034v-1.79c0-.405-.33-.735-.736-.735h-9.02V2.453l1.328 1.174c.279.247.7.246.977-.003l2.059-1.84 2.058 1.84c.28.25.702.25.98 0l2.06-1.841 2.059 1.841c.278.249.698.25.977.003l1.326-1.174v13.98z"/>
</svg>
