<svg xmlns="http://www.w3.org/2000/svg" width="83" height="33" fill="none" viewBox="0 0 83 33">
    <path fill="#292929" d="M17.29 17.364H6.552v-2.912H17.29v2.912zm2.678-7.93H17.29v2.886H6.552V9.434H3.874v10.114h16.094V9.434zm2.626 12.636H1.3v2.158h5.096v7.8H9.1v-7.8h5.694v7.8h2.678v-7.8h5.122V22.07zm6.706-2.782h8.008V17.13H29.3v-4.368h8.918v-2.21H26.622v15.964h1.95c4.342 0 7.566-.13 11.232-.728l-.26-2.158c-3.406.546-6.344.676-10.244.702v-5.044zm12.636-10.79v23.53h2.678V8.498h-2.678zm20.512 6.552H57.04v-3.796h5.408v3.796zm-8.086 0h-3.198v2.028h17.134V15.05h-3.172v-3.796h3.302V9.2H51.034v2.054h3.328v3.796zm0 12.974h13.364v-5.46H51.658v1.976H65.1v1.638H51.71v5.616h16.692v-2.002h-14.04v-1.768zm-5.226-9.308v2.132h21.268v-2.132H49.136z"/>
    <path fill="#292929" fill-rule="evenodd" d="M77.5 10c-.552 0-1 .448-1 1v3.5H73c-.552 0-1 .448-1 1s.448 1 1 1h3.5V20c0 .552.448 1 1 1s1-.448 1-1v-3.5H82c.552 0 1-.448 1-1s-.448-1-1-1h-3.5V11c0-.552-.448-1-1-1z" clip-rule="evenodd"/>
</svg>
