<svg width="108" height="32" viewBox="0 0 108 32" fill="none" xmlns="http://www.w3.org/2000/svg">
<rect width="108" height="32" rx="16" fill="#6D77B8"/>
<path fill-rule="evenodd" clip-rule="evenodd" d="M88.0688 14L87 15.0688L91.6852 19.7541L91.8469 19.5925L91.8477 19.5933L96.3721 15.0689L95.3032 14L91.6861 17.6172L88.0688 14Z" fill="white"/>
<path d="M18.512 17.316C19.796 16.968 20.672 16.224 21.164 15.264C21.656 16.176 22.52 16.884 23.792 17.208L24.488 16.008C22.868 15.588 22.064 14.592 21.956 13.536H24.188V12.276H21.944V11.076H20.348V12.276H18.128V13.536H20.336C20.228 14.64 19.448 15.672 17.804 16.104L18.512 17.316ZM21.944 16.992H20.348V18.672C19.34 18.708 18.38 18.708 17.564 18.708L17.768 19.992C19.664 19.98 22.268 19.968 24.644 19.488L24.548 18.336C23.708 18.468 22.832 18.54 21.944 18.6V16.992ZM25.148 10.968V22.056H26.732V10.968H25.148ZM37.7351 10.992H36.1391V19.044H37.7351V10.992ZM35.3231 16.116C33.5231 15.54 32.7551 14.124 32.7551 12.66V11.592H31.1471V12.66C31.1471 14.136 30.3551 15.684 28.5191 16.308L29.3231 17.568C30.6071 17.124 31.4711 16.224 31.9751 15.108C32.4551 16.14 33.2951 16.956 34.5191 17.376L35.3231 16.116ZM31.9631 20.58V18.276H30.3791V21.84H38.0111V20.58H31.9631ZM49.0861 14.544C46.6501 14.208 45.4021 12.828 45.4021 11.616V11.268H43.7701V11.616C43.7701 12.864 42.5341 14.232 40.0981 14.568L40.6861 15.816C42.5461 15.516 43.9021 14.664 44.5981 13.536C45.2941 14.652 46.6381 15.492 48.4861 15.78L49.0861 14.544ZM42.3301 18.612H40.7461V21.84H48.4861V20.58H42.3301V18.612ZM39.5821 16.416V17.664H43.9381V19.548H45.5221V17.664H49.6021V16.416H39.5821Z" fill="white"/>
</svg>
