<svg xmlns="http://www.w3.org/2000/svg" width="108" height="32" fill="none" viewBox="0 0 108 32">
    <rect width="108" height="32" fill="#6D77B8" rx="16"/>
    <path fill="#fff" fill-rule="evenodd" d="M88.069 14L87 15.069l4.685 4.685.162-.162v.001l4.525-4.524L95.303 14l-3.617 3.617L88.07 14z" clip-rule="evenodd"/>
    <path fill="#fff" d="M18.524 17.508c1.92-.348 3.312-1.308 3.996-2.628.696 1.296 2.1 2.22 4.044 2.568l.6-1.248c-2.376-.348-3.66-1.68-3.804-3.12h3.312v-1.26h-8.328v1.26h3.312c-.144 1.44-1.428 2.82-3.744 3.18l.612 1.248zm4.788 1.956v-2.436h-1.584v2.436h-4.212v1.284h10.008v-1.284h-4.212zm12.155-7.26h-2.52v-1.188h-1.584v1.188h-2.532v1.236h6.636v-1.236zm-4.548 3.744c0-.564.504-.876 1.236-.876.744 0 1.236.312 1.236.876 0 .576-.492.888-1.236.888-.732 0-1.236-.312-1.236-.888zm2.028 2.004c1.176-.228 1.944-.972 1.944-2.004 0-1.236-1.128-2.076-2.736-2.076-1.62 0-2.748.84-2.748 2.076 0 1.032.768 1.776 1.956 2.004v.936c-.984.024-1.92.024-2.748.024l.192 1.284c1.956 0 4.512-.012 6.924-.456l-.12-1.152c-.864.12-1.764.18-2.664.24v-.876zm3.24-6.972v11.052h1.584V10.98h-1.584zm12.9 3.564c-2.437-.336-3.685-1.716-3.685-2.928v-.348H43.77v.348c0 1.248-1.236 2.616-3.672 2.952l.588 1.248c1.86-.3 3.216-1.152 3.912-2.28.696 1.116 2.04 1.956 3.888 2.244l.6-1.236zm-6.757 4.068h-1.584v3.228h7.74v-1.26H42.33v-1.968zm-2.748-2.196v1.248h4.356v1.884h1.584v-1.884h4.08v-1.248h-10.02z"/>
</svg>
