<svg xmlns="http://www.w3.org/2000/svg" width="20" height="20" fill="none" viewBox="0 0 20 20">
    <path fill="#292929" fill-rule="evenodd" d="M10 2C8.397 2 7.098 3.3 7.098 4.902c0 1.603 1.3 2.903 2.902 2.903 1.603 0 2.902-1.3 2.902-2.903S11.603 2 10 2zM5.098 4.902C5.098 2.195 7.293 0 10 0c2.707 0 4.902 2.195 4.902 4.902 0 2.708-2.194 4.903-4.902 4.903-2.707 0-4.902-2.195-4.902-4.903zM7.518 13.39C4.47 13.39 2 15.86 2 18.908v.09c0 .553-.448 1-1 1s-1-.447-1-1v-.09c0-4.152 3.366-7.518 7.518-7.518h4.964c4.152 0 7.518 3.366 7.518 7.518v.09c0 .553-.448 1-1 1s-1-.447-1-1v-.09c0-3.048-2.47-5.518-5.518-5.518H7.518z" clip-rule="evenodd"/>
</svg>
