<svg xmlns="http://www.w3.org/2000/svg" width="94" height="24" fill="none" viewBox="0 0 94 24">
    <path fill="#292929" d="M8.204 4.788h5.408v7.228H8.204V4.788zm4.03 14.222v-4.836h7.436v-2.158h-3.406V4.788h3.458V2.63H2.068v2.158h3.458v7.228h-3.38v2.158h7.41v4.836H.3v2.21h21.32v-2.21h-9.386zM43.588.524H40.91V17.58h2.678V.524zM27.312 7.96c0-2.158 1.534-3.562 3.614-3.562 2.054 0 3.614 1.404 3.614 3.562 0 2.132-1.56 3.562-3.614 3.562-2.08 0-3.614-1.43-3.614-3.562zm9.828 0c0-3.432-2.678-5.876-6.214-5.876-3.536 0-6.24 2.444-6.24 5.876 0 3.406 2.704 5.876 6.24 5.876s6.214-2.47 6.214-5.876zm-6.188 13.416v-5.512h-2.704v7.696h16.016v-2.184H30.952zm36.112-8.45H53.518V9.702h12.844V7.596H53.518V4.58h13.364V2.422H50.788v12.662h16.276v-2.158zm-18.902 6.006v2.184h21.294v-2.184H48.162zm37.698-8.19c-3.51-1.196-5.538-4.108-5.538-7.15V1.564h-2.704v2.054c0 3.328-2.028 6.396-5.72 7.67l1.404 2.106c2.756-.988 4.732-2.964 5.746-5.512.988 2.236 2.86 4.056 5.382 4.94l1.43-2.08zm1.898 10.816h-9.724v-2.47h9.724v2.47zm0-4.55h-9.724v-2.496h-2.652v9.204H90.41v-9.204h-2.652v2.496zM93.66 5.62V3.41h-3.25V.524h-2.678v12.922h2.678v-3.068h3.25v-2.21h-3.25V5.62h3.25z"/>
</svg>
