<svg xmlns="http://www.w3.org/2000/svg" width="118" height="16" fill="none" viewBox="0 0 118 16">
    <path fill="#292929" d="M7.24 8.416c.08-.464.128-.944.128-1.488 0-.608-.064-1.152-.176-1.68h2.96v3.168H7.24zM3.704 10.56c-1.232 0-2.096-1.36-2.096-3.632 0-2.24.864-3.6 2.096-3.6 1.248 0 2.096 1.36 2.096 3.6 0 2.272-.848 3.632-2.096 3.632zM10.152.768v3.12H6.744C6.088 2.592 5.016 1.84 3.704 1.84 1.576 1.84.056 3.824.056 6.928c0 3.136 1.52 5.104 3.648 5.104 1.376 0 2.512-.832 3.12-2.256h3.328v5.488h1.664V.768h-1.664zm5.199 1.536v1.344h5.152c-.288 3.328-2.08 5.872-5.872 7.696l.88 1.312c4.96-2.4 6.688-6.048 6.688-10.352H15.35zm9.456-1.52v14.448h1.648V.784h-1.648zm5.15 1.52v1.344h5.056c-.335 3.328-2.24 5.872-5.775 7.68l.912 1.264c4.72-2.384 6.511-6.096 6.511-10.288h-6.704zM42.63 6.48h-2.191V.768h-1.649v14.448h1.648v-7.36h2.193V6.48zm18.041.704V5.856h-2c.432-1.76.432-3.088.432-3.936v-.656h-4.656v1.328h3.056c-.032.8-.112 1.872-.48 3.264H52.99c.48-1.696.48-3.04.48-3.904v-.688h-4.688v1.328h3.088c-.032.816-.128 1.856-.544 3.264H47.55v1.328h5.712v1.52h-4.176V10h8.272v1.264h-8.24v3.84h10.304v-1.296h-8.656V12.48h8.24V8.704H54.91v-1.52h5.76zM65.42 14h1.857V3.776h3.472V2.208h-8.784v1.568h3.456V14zm7.366 0h1.856V2.208h-1.856V14zm4.938 0h1.856V9.536h1.776c2.56 0 4.432-1.184 4.432-3.76 0-2.656-1.872-3.568-4.496-3.568h-3.568V14zm1.856-5.952V3.712h1.536c1.872 0 2.848.512 2.848 2.064s-.896 2.272-2.784 2.272h-1.6zM96.477 7.04h-3.408V3.152h3.408V7.04zm1.616-5.2h-6.656v6.528h6.656V1.84zm.48 7.84h-1.648v.4c0 1.84-1.888 3.392-4.688 3.808l.64 1.28c2.224-.368 4-1.408 4.88-2.896.864 1.488 2.64 2.528 4.864 2.896l.64-1.28c-2.8-.416-4.688-1.968-4.688-3.808v-.4zm3.648-5.104V.784h-1.648v9.568h1.648V5.936h2.048v-1.36h-2.048zm12.351 2.56c-2.224-.672-3.536-2.336-3.536-4.096v-.064h3.088V1.648h-7.904v1.328h3.136v.064c0 1.856-1.312 3.632-3.584 4.336l.832 1.296c1.728-.56 2.96-1.728 3.616-3.2.656 1.36 1.888 2.432 3.552 2.944l.8-1.28zm1.36 6.592h-6.176v-1.6h6.176v1.6zm0-2.896h-6.176V9.28h-1.632v5.776h9.44V9.28h-1.632v1.552zM115.916.768v7.856h1.648V.768h-1.648z"/>
</svg>
