<svg xmlns="http://www.w3.org/2000/svg" width="24" height="24" fill="none" viewBox="0 0 24 24">
    <path stroke="#000" stroke-linecap="round" stroke-linejoin="round" stroke-width="1.5" d="M19.5 3.75h-15c-.414 0-.75.336-.75.75v15c0 .414.336.75.75.75h15c.414 0 .75-.336.75-.75v-15c0-.414-.336-.75-.75-.75zM16.5 2.25v3M7.5 2.25v3M3.75 8.25h16.5"/>
    <path stroke="#000" stroke-linecap="round" stroke-linejoin="round" stroke-width="1.5" d="M8.625 12h2.625l-1.5 1.875c.247 0 .49.06.707.177.217.116.403.284.54.49.137.204.222.44.246.685.024.246-.013.493-.107.721-.094.228-.243.43-.434.586-.19.156-.417.264-.659.312-.242.048-.492.036-.728-.036-.236-.071-.45-.2-.625-.374M13.5 13.125L15 12v4.875"/>
</svg>
