<svg xmlns="http://www.w3.org/2000/svg" width="24" height="24" fill="none" viewBox="0 0 24 24">
    <path stroke="#000" stroke-linecap="round" stroke-linejoin="round" stroke-width="1.5" d="M20.25 4.5H3.75c-.414 0-.75.336-.75.75v13.5c0 .414.336.75.75.75h16.5c.414 0 .75-.336.75-.75V5.25c0-.414-.336-.75-.75-.75zM3 7.5h18"/>
    <path stroke="#000" stroke-linecap="round" stroke-linejoin="round" stroke-width="1.5" d="M15.75 10.5c0 .995-.395 1.948-1.098 2.652-.704.703-1.657 1.098-2.652 1.098-.995 0-1.948-.395-2.652-1.098-.703-.704-1.098-1.657-1.098-2.652"/>
</svg>
