<svg xmlns="http://www.w3.org/2000/svg" width="20" height="20" fill="none" viewBox="0 0 20 20">
    <path fill="#fff" stroke="#fff" stroke-linecap="round" stroke-linejoin="round" stroke-miterlimit="10" stroke-width="2" d="M7.188 19c.31 0 .562-.252.562-.563 0-.31-.252-.562-.563-.562-.31 0-.562.252-.562.563 0 .31.252.562.563.562zM15.063 19c.31 0 .562-.252.562-.563 0-.31-.252-.562-.563-.562-.31 0-.562.252-.562.563 0 .31.252.562.563.562z"/>
    <path stroke="#fff" stroke-linecap="round" stroke-linejoin="round" stroke-width="2" d="M1 1h2.25L5.5 14.5h11.25L19 4.375H4.375"/>
</svg>
