<svg xmlns="http://www.w3.org/2000/svg" width="86" height="35" fill="none" viewBox="0 0 86 35">
    <path fill="#fff" stroke="#fff" stroke-miterlimit="10" d="M26.958 1h-2.824v25.958h2.824V1zM33.89 8.092h-2.864v18.866h2.864V8.092zM10.72 7.614c-2.734 0-5.024 1.119-6.892 3.357V8.096H1v25.54h2.828v-9.445c2.043 2.264 4.398 3.39 7.065 3.39 2.663 0 4.946-.986 6.828-2.94 1.886-1.958 2.828-4.31 2.828-7.063 0-2.746-.96-5.092-2.867-7.046-1.9-1.947-4.226-2.918-6.961-2.918zm4.915 15.174c-1.387 1.421-3.036 2.126-4.918 2.126-1.95 0-3.624-.687-5-2.087-1.373-1.396-2.072-3.12-2.072-5.178 0-2.054.674-3.774 2.025-5.174 1.341-1.393 3.008-2.098 4.98-2.098 1.974 0 3.648.713 5.014 2.13 1.365 1.422 2.054 3.142 2.054 5.139.003 2.008-.689 3.724-2.083 5.142zM60.357 1c-.587 0-1.104.216-1.53.658-.423.443-.631.95-.631 1.54 0 .587.208 1.105.63 1.54.427.443.947.656 1.556.656.61 0 1.122-.213 1.556-.637.423-.429.63-.947.63-1.558 0-.616-.207-1.13-.63-1.558-.434-.425-.953-.641-1.58-.641zM32.439 1c-.595 0-1.108.216-1.53.658-.431.443-.639.95-.639 1.54 0 .587.208 1.105.638 1.54.423.443.946.656 1.548.656.613 0 1.137-.213 1.556-.637.423-.429.635-.947.635-1.558 0-.616-.212-1.13-.635-1.558C33.592 1.216 33.06 1 32.44 1zM75.745 24.91c-2.186 0-3.982-.719-5.409-2.173-1.437-1.453-2.147-3.195-2.147-5.228 0-2.03.728-3.731 2.176-5.106 1.452-1.374 3.244-2.058 5.377-2.058 2.713 0 4.917 1.094 6.588 3.285l2.24-1.418c-.875-1.45-2.093-2.583-3.635-3.39-1.552-.805-3.25-1.208-5.09-1.208-3.107 0-5.63.99-7.58 2.958-1.954 1.971-2.929 4.346-2.929 7.11 0 2.77.968 5.113 2.914 7.024 1.947 1.921 4.359 2.878 7.255 2.878 1.864 0 3.595-.381 5.19-1.148 1.599-.759 2.89-1.863 3.879-3.317l-2.209-1.522c-1.795 2.213-4 3.314-6.62 3.314zM61.82 8.092h-2.864v18.866h2.864V8.092zM51.436 8.668c-1.093-.709-2.326-1.058-3.681-1.058-2.56 0-4.76 1.105-6.62 3.325v-2.84H38.27v18.863h2.864v-6.991c0-2.49.111-4.153.323-4.984.23-.831.616-1.616 1.197-2.357.574-.737 1.265-1.317 2.065-1.73.81-.41 1.627-.623 2.47-.623.834 0 1.544.126 2.14.381.584.252 1.064.644 1.44 1.159.384.522.667 1.155.864 1.907.204.748.29 2.159.29 4.242v8.993h2.828v-9.687c0-2.562-.268-4.462-.82-5.696-.56-1.23-1.388-2.202-2.495-2.904z"/>
</svg>
