<svg xmlns="http://www.w3.org/2000/svg" width="68" height="25" fill="none" viewBox="0 0 68 25">
    <path fill="#292929" d="M15.224 7.804h2.418v5.174h2.548V.55h-2.548v5.096h-2.418V.966h-2.522V12.77h2.522V7.804zM12 10.456C9.14 9.494 7.502 7.258 7.476 5.1h3.848V2.968H7.476V.654H4.902v2.314H.95V5.1h3.952c0 2.262-1.638 4.628-4.524 5.746l1.196 2.002c2.262-.832 3.822-2.47 4.654-4.394.858 1.768 2.418 3.25 4.602 3.978L12 10.456zM7.216 21.688V19.66H20.19v-5.746H4.512v2.028h13.052v1.82h-13v5.98h16.484v-2.054H7.216zM43.588.55h-2.704v17.29h2.704V.55zm-5.096 11.18c-3.302.598-6.136.728-10.4.754V9.26h8.034V2.136H25.388v2.158H33.5v2.938h-8.06v7.436h1.976c4.732 0 7.8-.13 11.362-.78l-.286-2.158zm-7.696 9.646v-4.914h-2.678v7.098h16.094v-2.184H30.796zM56.82 5.074h5.226v-2.21H48.89v2.21h5.226V7.31c0 4.03-2.418 8.398-6.058 10.088l1.534 2.132c2.756-1.326 4.862-4.108 5.902-7.384 1.092 3.042 3.198 5.59 5.928 6.786l1.482-2.106c-3.666-1.56-6.084-5.616-6.084-9.516V5.074zm7.956-4.55v23.478h2.704V.524h-2.704z"/>
</svg>
