<svg xmlns="http://www.w3.org/2000/svg" width="229" height="40" fill="none" viewBox="0 0 229 40">
    <path fill="#474747" d="M0 0H229V40H0z"/>
    <path fill="#fff" d="M54.469 18.952v.96h-6.16v1.616h4.16v3.328h-8.336v1.456H52.9v.944h-9.872v-3.328h8.336v-1.456h-8.416v-.944h4.24v-1.616h-6.16v-.96h13.44zm-6.736-2.704c-.054.128-.203.261-.448.4-.235.139-.582.293-1.04.464-.864.33-2.112.704-3.744 1.12l-.336-.896c.96-.245 1.76-.464 2.4-.656.65-.203 1.157-.384 1.52-.544.224-.096.405-.192.544-.288.138-.096.245-.197.32-.304.085-.107.144-.224.176-.352.032-.139.048-.299.048-.48v-.016H42.74v-.96h4.432v-1.424h1.136v1.424h4.448v.96h-4.448v.016c0 .181.01.341.032.48.032.128.085.245.16.352.085.107.192.203.32.288.138.085.314.176.528.272.362.16.896.352 1.6.576.714.213 1.504.432 2.368.656l-.32.896c-.715-.181-1.392-.368-2.032-.56-.63-.203-1.158-.379-1.584-.528-.49-.181-.87-.341-1.136-.48-.256-.15-.422-.288-.496-.416h-.016zm13.122 1.104c-.021.139-.15.33-.384.576-.224.235-.512.523-.864.864-.277.267-.634.587-1.072.96-.426.363-.864.72-1.312 1.072l-.704-.816c.438-.32.886-.672 1.344-1.056.47-.395.886-.773 1.248-1.136.256-.256.454-.48.592-.672.15-.192.262-.379.336-.56.086-.192.139-.395.16-.608.022-.224.032-.485.032-.784V13.16h1.152v2c0 .299.01.555.032.768.022.203.07.395.144.576.086.181.203.368.352.56.16.181.374.39.64.624.395.341.795.677 1.2 1.008.406.32.784.608 1.136.864l-.672.784c-.426-.32-.816-.619-1.168-.896l-.928-.784c-.757-.64-1.173-1.077-1.248-1.312h-.016zm-1.776 4.544h9.408v5.392h-1.12v-4.4H59.08v-.992zm8.288-6.096v-3.248h1.12v8.48h-1.12v-4.24h-3.296V15.8h3.296zm8.707 8.016c-.555 0-1.046-.085-1.472-.256-.427-.181-.79-.41-1.088-.688-.288-.288-.512-.613-.672-.976-.15-.363-.224-.73-.224-1.104v-.864c0-.373.074-.741.224-1.104.16-.363.384-.688.672-.976.298-.288.661-.517 1.088-.688.426-.181.917-.272 1.472-.272.554 0 1.045.09 1.472.272.426.17.784.4 1.072.688.298.288.522.613.672.976.16.363.24.73.24 1.104v.864c0 .373-.08.741-.24 1.104-.15.363-.374.688-.672.976-.288.277-.646.507-1.072.688-.427.17-.918.256-1.472.256zm0-5.92c-.363 0-.694.053-.992.16-.288.107-.539.256-.752.448-.203.192-.363.421-.48.688-.107.256-.16.533-.16.832v.672c0 .299.053.581.16.848.117.256.277.48.48.672.213.192.464.341.752.448.298.107.63.16.992.16s.688-.053.976-.16c.298-.107.55-.256.752-.448.213-.192.373-.416.48-.672.117-.267.176-.55.176-.848v-.672c0-.299-.059-.576-.176-.832-.107-.267-.267-.496-.48-.688-.203-.192-.454-.341-.752-.448-.288-.107-.614-.16-.976-.16zm7.072.64h2.432v1.008h-2.432v7.632H82.01V12.552h1.136v5.984zm-7.632-3.68v-2.224h1.136v2.224h3.648v.992h-8.48v-.992h3.696zm16.706 9.28V18.52h1.152v5.616h7.184v.976h-13.44v-.976h5.104zm4.576-2.016c.096-.49.176-.97.24-1.44.075-.48.134-.955.176-1.424.054-.48.09-.965.112-1.456.032-.501.048-1.019.048-1.552V14.92h-8.56v-.992h9.728v1.728c0 .672-.01 1.301-.032 1.888-.021.576-.058 1.13-.112 1.664-.042.523-.101 1.035-.176 1.536-.064.501-.144 1.008-.24 1.52l-1.184-.144zm16.643 2.016V20.84h-4.752v-.944h2.256v-5.12h-2.112v-.944h10.336v.944h-2.112v5.12h2.256v.944h-4.752v3.296h6.16v.976h-13.44v-.976h6.16zm-1.376-4.24h3.872v-5.12h-3.872v5.12zm14.85 6.112h8.176V27h-9.312v-4.784h1.136v3.792zm7.808-2.992h-1.12V12.552h1.12v10.464zm-7.808-2.432c-.544 0-1.04-.09-1.488-.272-.448-.192-.826-.437-1.136-.736-.309-.31-.549-.656-.72-1.04-.17-.384-.256-.773-.256-1.168v-.96c0-.395.086-.784.256-1.168.171-.384.411-.725.72-1.024.31-.31.688-.555 1.136-.736.448-.192.944-.288 1.488-.288s1.04.096 1.488.288c.448.181.827.427 1.136.736.31.299.55.64.72 1.024.171.384.256.773.256 1.168v.96c0 .395-.085.784-.256 1.168-.17.384-.41.73-.72 1.04-.309.299-.688.544-1.136.736-.448.181-.944.272-1.488.272zm0-6.384c-.373 0-.714.064-1.024.192-.309.128-.576.299-.8.512-.213.213-.384.459-.512.736-.117.277-.176.565-.176.864v.768c0 .299.059.587.176.864.128.277.299.523.512.736.224.213.491.384.8.512.31.128.651.192 1.024.192.374 0 .715-.064 1.024-.192.31-.128.571-.299.784-.512.224-.213.395-.459.512-.736.128-.277.192-.565.192-.864v-.768c0-.299-.064-.587-.192-.864-.117-.277-.288-.523-.512-.736-.213-.213-.474-.384-.784-.512-.309-.128-.65-.192-1.024-.192zm22.739 7.136h-9.68v-7.584h9.552v.96h-8.448v2.352h8.368v.96h-8.368v2.352h8.576v.96zm1.792 2.8v.976h-13.44v-.976h13.44zm14.066-4.304h-6.592v-6.624h1.088v2.416h4.416v-2.416h1.088v6.624zm-4.672 1.904h8.864v.992h-7.744v3.424h8.016v.992h-9.136v-5.408zm8.816-5.616h2.24v.992h-2.24v3.76h-1.12v-8.32h1.12v3.568zm-9.648 2.736h4.416V16.6h-4.416v2.256zm25.555 8.32h-1.136V12.552h1.136v14.624zm-11.28-4.24c1.226-.704 2.202-1.307 2.928-1.808.725-.512 1.274-.987 1.648-1.424.373-.448.613-.896.72-1.344.117-.448.176-.97.176-1.568v-1.84h-5.312v-1.024h6.416v2.88c0 .49-.027.933-.08 1.328-.054.395-.16.768-.32 1.12-.15.352-.363.693-.64 1.024-.278.33-.64.677-1.088 1.04-.438.363-.976.752-1.616 1.168-.63.405-1.376.859-2.24 1.36l-.592-.912z"/>
</svg>
