<svg xmlns="http://www.w3.org/2000/svg" width="229" height="40" fill="none" viewBox="0 0 229 40">
    <path fill="#474747" d="M0 0H229V40H0z"/>
    <path fill="#fff" d="M41.397 23.144c.8-.523 1.466-.981 2-1.376.544-.405.986-.779 1.328-1.12.352-.341.613-.672.784-.992.181-.33.31-.683.384-1.056l-4.544.144-.032-.96 4.688-.096c.01-.15.016-.304.016-.464v-2.24h-4.352v-1.008h5.44v2.8c0 .427-.016.816-.048 1.168h2.448v-5.088h1.12v13.6h-1.12v-7.504h-2.576c-.096.437-.25.843-.464 1.216-.214.373-.512.757-.896 1.152-.384.384-.87.795-1.456 1.232-.576.437-1.28.928-2.112 1.472l-.608-.88zm12.176 4.032h-1.12V12.552h1.12v14.624zm14.946 0H67.4v-8.352h-3.28v.496c0 1.344-.32 2.39-.96 3.136-.63.736-1.51 1.104-2.64 1.104-1.13 0-2.016-.368-2.656-1.104-.63-.747-.944-1.792-.944-3.136v-1.504c0-1.333.315-2.368.944-3.104.64-.747 1.526-1.12 2.656-1.12 1.13 0 2.01.368 2.64 1.104.63.736.95 1.77.96 3.104h3.28v-5.248h1.12v14.624zm-5.504-9.152c0-.608-.058-1.125-.176-1.552-.117-.427-.288-.773-.512-1.04-.213-.277-.474-.475-.784-.592-.31-.128-.65-.192-1.024-.192-.373 0-.714.064-1.024.192-.31.117-.576.315-.8.592-.213.267-.378.613-.496 1.04-.117.427-.176.944-.176 1.552v1.104c0 .608.059 1.13.176 1.568.118.427.283.779.496 1.056.224.267.49.464.8.592.31.117.65.176 1.024.176s.715-.059 1.024-.176c.31-.128.57-.325.784-.592.224-.277.395-.63.512-1.056.118-.437.176-.96.176-1.568v-1.104zm13.059 5.792c-.555 0-1.046-.085-1.472-.256-.427-.181-.79-.41-1.088-.688-.288-.288-.512-.613-.672-.976-.15-.363-.224-.73-.224-1.104v-.864c0-.373.074-.741.224-1.104.16-.363.384-.688.672-.976.298-.288.661-.517 1.088-.688.426-.181.917-.272 1.472-.272.554 0 1.045.09 1.472.272.426.17.784.4 1.072.688.298.288.522.613.672.976.16.363.24.73.24 1.104v.864c0 .373-.08.741-.24 1.104-.15.363-.374.688-.672.976-.288.277-.646.507-1.072.688-.427.17-.918.256-1.472.256zm0-5.92c-.363 0-.694.053-.992.16-.288.107-.539.256-.752.448-.203.192-.363.421-.48.688-.107.256-.16.533-.16.832v.672c0 .299.053.581.16.848.117.256.277.48.48.672.213.192.464.341.752.448.298.107.63.16.992.16s.688-.053.976-.16c.298-.107.55-.256.752-.448.213-.192.373-.416.48-.672.117-.267.176-.55.176-.848v-.672c0-.299-.059-.576-.176-.832-.107-.267-.267-.496-.48-.688-.203-.192-.454-.341-.752-.448-.288-.107-.614-.16-.976-.16zm7.072.64h2.432v1.008h-2.432v7.632H82.01V12.552h1.136v5.984zm-7.632-3.68v-2.224h1.136v2.224h3.648v.992h-8.48v-.992h3.696zm16.706 9.28V18.52h1.152v5.616h7.184v.976h-13.44v-.976h5.104zm4.576-2.016c.096-.49.176-.97.24-1.44.075-.48.134-.955.176-1.424.054-.48.09-.965.112-1.456.032-.501.048-1.019.048-1.552V14.92h-8.56v-.992h9.728v1.728c0 .672-.01 1.301-.032 1.888-.021.576-.058 1.13-.112 1.664-.042.523-.101 1.035-.176 1.536-.064.501-.144 1.008-.24 1.52l-1.184-.144zm16.643 2.016V20.84h-4.752v-.944h2.256v-5.12h-2.112v-.944h10.336v.944h-2.112v5.12h2.256v.944h-4.752v3.296h6.16v.976h-13.44v-.976h6.16zm-1.376-4.24h3.872v-5.12h-3.872v5.12zm14.85 6.112h8.176V27h-9.312v-4.784h1.136v3.792zm7.808-2.992h-1.12V12.552h1.12v10.464zm-7.808-2.432c-.544 0-1.04-.09-1.488-.272-.448-.192-.826-.437-1.136-.736-.309-.31-.549-.656-.72-1.04-.17-.384-.256-.773-.256-1.168v-.96c0-.395.086-.784.256-1.168.171-.384.411-.725.72-1.024.31-.31.688-.555 1.136-.736.448-.192.944-.288 1.488-.288s1.04.096 1.488.288c.448.181.827.427 1.136.736.31.299.55.64.72 1.024.171.384.256.773.256 1.168v.96c0 .395-.085.784-.256 1.168-.17.384-.41.73-.72 1.04-.309.299-.688.544-1.136.736-.448.181-.944.272-1.488.272zm0-6.384c-.373 0-.714.064-1.024.192-.309.128-.576.299-.8.512-.213.213-.384.459-.512.736-.117.277-.176.565-.176.864v.768c0 .299.059.587.176.864.128.277.299.523.512.736.224.213.491.384.8.512.31.128.651.192 1.024.192.374 0 .715-.064 1.024-.192.31-.128.571-.299.784-.512.224-.213.395-.459.512-.736.128-.277.192-.565.192-.864v-.768c0-.299-.064-.587-.192-.864-.117-.277-.288-.523-.512-.736-.213-.213-.474-.384-.784-.512-.309-.128-.65-.192-1.024-.192zm22.739 7.136h-9.68v-7.584h9.552v.96h-8.448v2.352h8.368v.96h-8.368v2.352h8.576v.96zm1.792 2.8v.976h-13.44v-.976h13.44zm14.066-4.304h-6.592v-6.624h1.088v2.416h4.416v-2.416h1.088v6.624zm-4.672 1.904h8.864v.992h-7.744v3.424h8.016v.992h-9.136v-5.408zm8.816-5.616h2.24v.992h-2.24v3.76h-1.12v-8.32h1.12v3.568zm-9.648 2.736h4.416V16.6h-4.416v2.256zm25.555 8.32h-1.136V12.552h1.136v14.624zm-11.28-4.24c1.226-.704 2.202-1.307 2.928-1.808.725-.512 1.274-.987 1.648-1.424.373-.448.613-.896.72-1.344.117-.448.176-.97.176-1.568v-1.84h-5.312v-1.024h6.416v2.88c0 .49-.027.933-.08 1.328-.054.395-.16.768-.32 1.12-.15.352-.363.693-.64 1.024-.278.33-.64.677-1.088 1.04-.438.363-.976.752-1.616 1.168-.63.405-1.376.859-2.24 1.36l-.592-.912z"/>
</svg>
