<svg xmlns="http://www.w3.org/2000/svg" width="42" height="42" viewBox="0 0 42 42">
    <g fill="none" fill-rule="evenodd" transform="translate(-3 -3)">
        <circle cx="24" cy="24" r="21" fill="#2F3640"/>
        <path fill="#FFF" fill-rule="nonzero" d="M24.02 14c5.683 0 7.98 2.257 7.98 5.72v.661c0 .7-.273.934-.934.934h-2.998c-.7 0-.973-.233-.973-.934v-.272c0-1.44-.779-2.062-2.998-2.062-2.219 0-2.997.622-2.997 2.062v7.743c0 1.44.778 2.101 2.997 2.101 2.22 0 2.998-.661 2.998-2.1v-.585c0-.7.272-.972.973-.972h2.998c.661 0 .934.272.934.972v.973C32 31.743 29.664 34 23.98 34 18.259 34 16 31.743 16 28.241V19.72c0-3.463 2.297-5.72 8.02-5.72z"/>
    </g>
</svg>
