<svg xmlns="http://www.w3.org/2000/svg" width="24" height="24" fill="none" viewBox="0 0 24 24">
    <path fill="#C4C4C4" fill-rule="evenodd" d="M24 4c0 2.21-1.79 4-4 4-1.418 0-2.663-.737-3.373-1.85l-8.685 5.165c.038.223.058.452.058.685 0 .075-.002.15-.006.225l8.683 5.547C17.395 16.703 18.616 16 20 16c2.21 0 4 1.79 4 4s-1.79 4-4 4-4-1.79-4-4c0-.094.003-.188.01-.28l-8.66-5.533C6.636 15.279 5.402 16 4 16c-2.21 0-4-1.79-4-4s1.79-4 4-4c1.256 0 2.376.579 3.11 1.483l8.895-5.29C16.002 4.13 16 4.066 16 4c0-2.21 1.79-4 4-4s4 1.79 4 4z" clip-rule="evenodd"/>
</svg>
